<?xml version="1.0" encoding="utf-8"?>
<svg xmlns="http://www.w3.org/2000/svg" fill="#000000" viewBox="0 0 24 24" width="24" height="24">
  <!-- soft rings (blur brush) -->
  <path d="M12 5 C8.1 5 5 8.1 5 12 C5 15.9 8.1 19 12 19 C15.9 19 19 15.9 19 12 C19 8.1 15.9 5 12 5 Z M12 7.2 C14.7 7.2 16.8 9.3 16.8 12 C16.8 14.7 14.7 16.8 12 16.8 C9.3 16.8 7.2 14.7 7.2 12 C7.2 9.3 9.3 7.2 12 7.2 Z"/>
  <path d="M12 9 C10.3 9 9 10.3 9 12 C9 13.7 10.3 15 12 15 C13.7 15 15 13.7 15 12 C15 10.3 13.7 9 12 9 Z"/>
</svg>
